<?xml version="1.0" encoding="UTF-8" standalone="no"?>
<!DOCTYPE svg PUBLIC "-//W3C//DTD SVG 1.1//EN"
 "http://www.w3.org/Graphics/SVG/1.1/DTD/svg11.dtd">
<!-- Generated by graphviz version 2.38.0 (20140413.2041)
 -->
<!-- Title: dependencies Pages: 1 -->
<svg width="2009pt" height="284pt"
 viewBox="0.00 0.00 2009.00 284.00" xmlns="http://www.w3.org/2000/svg" xmlns:xlink="http://www.w3.org/1999/xlink">
<g id="graph0" class="graph" transform="scale(1 1) rotate(0) translate(4 280)">
<title>dependencies</title>
<polygon fill="white" stroke="none" points="-4,4 -4,-280 2005,-280 2005,4 -4,4"/>
<text text-anchor="start" x="979.509" y="-42.4" font-family="sans-serif" font-weight="bold" font-size="14.00">Legend</text>
<polygon fill="#ffffb3" stroke="none" points="766.5,-10 766.5,-30 786.5,-30 786.5,-10 766.5,-10"/>
<text text-anchor="start" x="790.129" y="-15.4" font-family="sans-serif" font-size="14.00"> &#160;Declarations</text>
<polygon fill="#8dd3c7" stroke="none" points="879.5,-10 879.5,-30 899.5,-30 899.5,-10 879.5,-10"/>
<text text-anchor="start" x="903.225" y="-15.4" font-family="sans-serif" font-size="14.00"> &#160;Module</text>
<polygon fill="#80b1d3" stroke="none" points="965.5,-10 965.5,-30 985.5,-30 985.5,-10 965.5,-10"/>
<text text-anchor="start" x="989.281" y="-15.4" font-family="sans-serif" font-size="14.00"> &#160;Bootstrap</text>
<polygon fill="#fdb462" stroke="none" points="1062.5,-10 1062.5,-30 1082.5,-30 1082.5,-10 1062.5,-10"/>
<text text-anchor="start" x="1086.17" y="-15.4" font-family="sans-serif" font-size="14.00"> &#160;Providers</text>
<polygon fill="#fb8072" stroke="none" points="1158.5,-10 1158.5,-30 1178.5,-30 1178.5,-10 1158.5,-10"/>
<text text-anchor="start" x="1182.23" y="-15.4" font-family="sans-serif" font-size="14.00"> &#160;Exports</text>
<g id="clust1" class="cluster"><title>cluster_AppModule</title>
<polygon fill="none" stroke="black" stroke-dasharray="1,5" points="8,-70 8,-268 1993,-268 1993,-70 8,-70"/>
</g>
<g id="clust2" class="cluster"><title>cluster_AppModule_declarations</title>
<polygon fill="none" stroke="black" points="1180,-78 1180,-130 1985,-130 1985,-78 1180,-78"/>
</g>
<g id="clust10" class="cluster"><title>cluster_AppModule_imports</title>
<polygon fill="none" stroke="black" points="468,-78 468,-130 1172,-130 1172,-78 468,-78"/>
</g>
<g id="clust12" class="cluster"><title>cluster_AppModule_bootstrap</title>
<polygon fill="none" stroke="black" points="1049,-208 1049,-260 1173,-260 1173,-208 1049,-208"/>
</g>
<g id="clust13" class="cluster"><title>cluster_AppModule_providers</title>
<polygon fill="none" stroke="black" points="16,-78 16,-130 460,-130 460,-78 16,-78"/>
</g>
<!-- AppComponent -->
<g id="node1" class="node"><title>AppComponent</title>
<polygon fill="#ffffb3" stroke="black" points="1976.94,-122 1871.06,-122 1871.06,-86 1976.94,-86 1976.94,-122"/>
<text text-anchor="middle" x="1924" y="-99.8" font-family="Times,serif" font-size="14.00">AppComponent</text>
</g>
<!-- AppModule -->
<g id="node8" class="node"><title>AppModule</title>
<polygon fill="#8dd3c7" stroke="black" points="1152.66,-187 1149.66,-191 1128.66,-191 1125.66,-187 1069.34,-187 1069.34,-151 1152.66,-151 1152.66,-187"/>
<text text-anchor="middle" x="1111" y="-164.8" font-family="Times,serif" font-size="14.00">AppModule</text>
</g>
<!-- AppComponent&#45;&gt;AppModule -->
<g id="edge1" class="edge"><title>AppComponent&#45;&gt;AppModule</title>
<path fill="none" stroke="black" d="M1924,-122.323C1924,-145.66 1924,-183 1924,-183 1924,-183 1162.72,-183 1162.72,-183"/>
<polygon fill="black" stroke="black" points="1162.72,-179.5 1152.72,-183 1162.72,-186.5 1162.72,-179.5"/>
</g>
<!-- MapComponent -->
<g id="node2" class="node"><title>MapComponent</title>
<polygon fill="#ffffb3" stroke="black" points="1853.49,-122 1746.51,-122 1746.51,-86 1853.49,-86 1853.49,-122"/>
<text text-anchor="middle" x="1800" y="-99.8" font-family="Times,serif" font-size="14.00">MapComponent</text>
</g>
<!-- MapComponent&#45;&gt;AppModule -->
<g id="edge2" class="edge"><title>MapComponent&#45;&gt;AppModule</title>
<path fill="none" stroke="black" d="M1800,-122.292C1800,-144.206 1800,-178 1800,-178 1800,-178 1162.81,-178 1162.81,-178"/>
<polygon fill="black" stroke="black" points="1162.81,-174.5 1152.81,-178 1162.81,-181.5 1162.81,-174.5"/>
</g>
<!-- LegendComponent -->
<g id="node3" class="node"><title>LegendComponent</title>
<polygon fill="#ffffb3" stroke="black" points="1728.81,-122 1605.19,-122 1605.19,-86 1728.81,-86 1728.81,-122"/>
<text text-anchor="middle" x="1667" y="-99.8" font-family="Times,serif" font-size="14.00">LegendComponent</text>
</g>
<!-- LegendComponent&#45;&gt;AppModule -->
<g id="edge3" class="edge"><title>LegendComponent&#45;&gt;AppModule</title>
<path fill="none" stroke="black" d="M1667,-122.027C1667,-142.767 1667,-174 1667,-174 1667,-174 1162.79,-174 1162.79,-174"/>
<polygon fill="black" stroke="black" points="1162.79,-170.5 1152.79,-174 1162.79,-177.5 1162.79,-170.5"/>
</g>
<!-- RwdImageMap -->
<g id="node4" class="node"><title>RwdImageMap</title>
<polygon fill="#ffffb3" stroke="black" points="1587.58,-122 1484.42,-122 1484.42,-86 1587.58,-86 1587.58,-122"/>
<text text-anchor="middle" x="1536" y="-99.8" font-family="Times,serif" font-size="14.00">RwdImageMap</text>
</g>
<!-- RwdImageMap&#45;&gt;AppModule -->
<g id="edge4" class="edge"><title>RwdImageMap&#45;&gt;AppModule</title>
<path fill="none" stroke="black" d="M1536,-122.106C1536,-141.339 1536,-169 1536,-169 1536,-169 1162.91,-169 1162.91,-169"/>
<polygon fill="black" stroke="black" points="1162.91,-165.5 1152.91,-169 1162.91,-172.5 1162.91,-165.5"/>
</g>
<!-- TableComponent -->
<g id="node5" class="node"><title>TableComponent</title>
<polygon fill="#ffffb3" stroke="black" points="1466.7,-122 1353.3,-122 1353.3,-86 1466.7,-86 1466.7,-122"/>
<text text-anchor="middle" x="1410" y="-99.8" font-family="Times,serif" font-size="14.00">TableComponent</text>
</g>
<!-- TableComponent&#45;&gt;AppModule -->
<g id="edge5" class="edge"><title>TableComponent&#45;&gt;AppModule</title>
<path fill="none" stroke="black" d="M1410,-122.302C1410,-140.27 1410,-165 1410,-165 1410,-165 1162.89,-165 1162.89,-165"/>
<polygon fill="black" stroke="black" points="1162.89,-161.5 1152.89,-165 1162.89,-168.5 1162.89,-161.5"/>
</g>
<!-- Autosize -->
<g id="node6" class="node"><title>Autosize</title>
<polygon fill="#ffffb3" stroke="black" points="1335.76,-122 1270.24,-122 1270.24,-86 1335.76,-86 1335.76,-122"/>
<text text-anchor="middle" x="1303" y="-99.8" font-family="Times,serif" font-size="14.00">Autosize</text>
</g>
<!-- Autosize&#45;&gt;AppModule -->
<g id="edge6" class="edge"><title>Autosize&#45;&gt;AppModule</title>
<path fill="none" stroke="black" d="M1303,-122.027C1303,-138.398 1303,-160 1303,-160 1303,-160 1162.66,-160 1162.66,-160"/>
<polygon fill="black" stroke="black" points="1162.66,-156.5 1152.66,-160 1162.66,-163.5 1162.66,-156.5"/>
</g>
<!-- OrderBy -->
<g id="node7" class="node"><title>OrderBy</title>
<polygon fill="#ffffb3" stroke="black" points="1252.48,-122 1187.52,-122 1187.52,-86 1252.48,-86 1252.48,-122"/>
<text text-anchor="middle" x="1220" y="-99.8" font-family="Times,serif" font-size="14.00">OrderBy</text>
</g>
<!-- OrderBy&#45;&gt;AppModule -->
<g id="edge7" class="edge"><title>OrderBy&#45;&gt;AppModule</title>
<path fill="none" stroke="black" d="M1220,-122.187C1220,-137.182 1220,-156 1220,-156 1220,-156 1162.83,-156 1162.83,-156"/>
<polygon fill="black" stroke="black" points="1162.83,-152.5 1152.83,-156 1162.83,-159.5 1162.83,-152.5"/>
</g>
<!-- AppComponent  -->
<g id="node14" class="node"><title>AppComponent </title>
<polygon fill="#80b1d3" stroke="black" points="1165.44,-252 1056.56,-252 1056.56,-216 1165.44,-216 1165.44,-252"/>
<text text-anchor="middle" x="1111" y="-229.8" font-family="Times,serif" font-size="14.00">AppComponent </text>
</g>
<!-- AppModule&#45;&gt;AppComponent  -->
<g id="edge13" class="edge"><title>AppModule&#45;&gt;AppComponent </title>
<path fill="none" stroke="black" stroke-dasharray="1,5" d="M1111,-187.106C1111,-187.106 1111,-205.991 1111,-205.991"/>
<polygon fill="black" stroke="black" points="1107.5,-205.991 1111,-215.991 1114.5,-205.991 1107.5,-205.991"/>
</g>
<!-- BrowserModule -->
<g id="node9" class="node"><title>BrowserModule</title>
<polygon fill="#8dd3c7" stroke="black" points="1164.47,-122 1161.47,-126 1140.47,-126 1137.47,-122 1057.53,-122 1057.53,-86 1164.47,-86 1164.47,-122"/>
<text text-anchor="middle" x="1111" y="-99.8" font-family="Times,serif" font-size="14.00">BrowserModule</text>
</g>
<!-- BrowserModule&#45;&gt;AppModule -->
<g id="edge8" class="edge"><title>BrowserModule&#45;&gt;AppModule</title>
<path fill="none" stroke="black" d="M1111,-122.106C1111,-122.106 1111,-140.991 1111,-140.991"/>
<polygon fill="black" stroke="black" points="1107.5,-140.991 1111,-150.991 1114.5,-140.991 1107.5,-140.991"/>
</g>
<!-- FormsModule -->
<g id="node10" class="node"><title>FormsModule</title>
<polygon fill="#8dd3c7" stroke="black" points="1039.83,-122 1036.83,-126 1015.83,-126 1012.83,-122 944.171,-122 944.171,-86 1039.83,-86 1039.83,-122"/>
<text text-anchor="middle" x="992" y="-99.8" font-family="Times,serif" font-size="14.00">FormsModule</text>
</g>
<!-- FormsModule&#45;&gt;AppModule -->
<g id="edge9" class="edge"><title>FormsModule&#45;&gt;AppModule</title>
<path fill="none" stroke="black" d="M992,-122.187C992,-137.182 992,-156 992,-156 992,-156 1059.05,-156 1059.05,-156"/>
<polygon fill="black" stroke="black" points="1059.05,-159.5 1069.05,-156 1059.05,-152.5 1059.05,-159.5"/>
</g>
<!-- HttpModule -->
<g id="node11" class="node"><title>HttpModule</title>
<polygon fill="#8dd3c7" stroke="black" points="926.439,-122 923.439,-126 902.439,-126 899.439,-122 841.561,-122 841.561,-86 926.439,-86 926.439,-122"/>
<text text-anchor="middle" x="884" y="-99.8" font-family="Times,serif" font-size="14.00">HttpModule</text>
</g>
<!-- HttpModule&#45;&gt;AppModule -->
<g id="edge10" class="edge"><title>HttpModule&#45;&gt;AppModule</title>
<path fill="none" stroke="black" d="M884,-122.027C884,-138.398 884,-160 884,-160 884,-160 1059.1,-160 1059.1,-160"/>
<polygon fill="black" stroke="black" points="1059.1,-163.5 1069.1,-160 1059.1,-156.5 1059.1,-163.5"/>
</g>
<!-- Ng2BootstrapModule -->
<g id="node12" class="node"><title>Ng2BootstrapModule</title>
<polygon fill="#8dd3c7" stroke="black" points="824.094,-122 821.094,-126 800.094,-126 797.094,-122 685.906,-122 685.906,-86 824.094,-86 824.094,-122"/>
<text text-anchor="middle" x="755" y="-99.8" font-family="Times,serif" font-size="14.00">Ng2BootstrapModule</text>
</g>
<!-- Ng2BootstrapModule&#45;&gt;AppModule -->
<g id="edge11" class="edge"><title>Ng2BootstrapModule&#45;&gt;AppModule</title>
<path fill="none" stroke="black" d="M755,-122.302C755,-140.27 755,-165 755,-165 755,-165 1059.12,-165 1059.12,-165"/>
<polygon fill="black" stroke="black" points="1059.12,-168.5 1069.12,-165 1059.12,-161.5 1059.12,-168.5"/>
</g>
<!-- TranslateModule.forRoot(args) -->
<g id="node13" class="node"><title>TranslateModule.forRoot(args)</title>
<polygon fill="#8dd3c7" stroke="black" points="667.822,-122 664.822,-126 643.822,-126 640.822,-122 476.178,-122 476.178,-86 667.822,-86 667.822,-122"/>
<text text-anchor="middle" x="572" y="-99.8" font-family="Times,serif" font-size="14.00">TranslateModule.forRoot(args)</text>
</g>
<!-- TranslateModule.forRoot(args)&#45;&gt;AppModule -->
<g id="edge12" class="edge"><title>TranslateModule.forRoot(args)&#45;&gt;AppModule</title>
<path fill="none" stroke="black" d="M572,-122.106C572,-141.339 572,-169 572,-169 572,-169 1059.15,-169 1059.15,-169"/>
<polygon fill="black" stroke="black" points="1059.15,-172.5 1069.15,-169 1059.15,-165.5 1059.15,-172.5"/>
</g>
<!-- DataService -->
<g id="node15" class="node"><title>DataService</title>
<ellipse fill="#fdb462" stroke="black" cx="394" cy="-104" rx="58.4415" ry="18"/>
<text text-anchor="middle" x="394" y="-99.8" font-family="Times,serif" font-size="14.00">DataService</text>
</g>
<!-- DataService&#45;&gt;AppModule -->
<g id="edge14" class="edge"><title>DataService&#45;&gt;AppModule</title>
<path fill="none" stroke="black" d="M394,-122.027C394,-142.767 394,-174 394,-174 394,-174 1059.09,-174 1059.09,-174"/>
<polygon fill="black" stroke="black" points="1059.09,-177.5 1069.09,-174 1059.09,-170.5 1059.09,-177.5"/>
</g>
<!-- PageController -->
<g id="node16" class="node"><title>PageController</title>
<ellipse fill="#fdb462" stroke="black" cx="248" cy="-104" rx="69.4993" ry="18"/>
<text text-anchor="middle" x="248" y="-99.8" font-family="Times,serif" font-size="14.00">PageController</text>
</g>
<!-- PageController&#45;&gt;AppModule -->
<g id="edge15" class="edge"><title>PageController&#45;&gt;AppModule</title>
<path fill="none" stroke="black" d="M248,-122.292C248,-144.206 248,-178 248,-178 248,-178 1059.08,-178 1059.08,-178"/>
<polygon fill="black" stroke="black" points="1059.08,-181.5 1069.08,-178 1059.08,-174.5 1059.08,-181.5"/>
</g>
<!-- HotkeyService -->
<g id="node17" class="node"><title>HotkeyService</title>
<ellipse fill="#fdb462" stroke="black" cx="92" cy="-104" rx="68.3382" ry="18"/>
<text text-anchor="middle" x="92" y="-99.8" font-family="Times,serif" font-size="14.00">HotkeyService</text>
</g>
<!-- HotkeyService&#45;&gt;AppModule -->
<g id="edge16" class="edge"><title>HotkeyService&#45;&gt;AppModule</title>
<path fill="none" stroke="black" d="M92,-122.323C92,-145.66 92,-183 92,-183 92,-183 1059.15,-183 1059.15,-183"/>
<polygon fill="black" stroke="black" points="1059.15,-186.5 1069.15,-183 1059.15,-179.5 1059.15,-186.5"/>
</g>
</g>
</svg>
